<mxfile host="app.diagrams.net" agent="Mozilla/5.0 (X11; Linux x86_64) AppleWebKit/537.36 (KHTML, like Gecko) Chrome/131.0.0.0 Safari/537.36" version="24.8.4">
  <diagram name="Page-1" id="VbodzML1HnJ0Jr6nNmtY">
    <mxGraphModel dx="1615" dy="983" grid="1" gridSize="10" guides="1" tooltips="1" connect="1" arrows="1" fold="1" page="1" pageScale="1" pageWidth="1500" pageHeight="900" math="0" shadow="0">
      <root>
        <mxCell id="0" />
        <mxCell id="1" parent="0" />
        <mxCell id="hRoWKbpFYFCaURxFquuC-1" value="users" style="shape=table;startSize=30;container=1;collapsible=1;childLayout=tableLayout;fixedRows=1;rowLines=0;fontStyle=1;align=center;resizeLast=1;html=1;" vertex="1" parent="1">
          <mxGeometry x="40" y="320" width="282" height="270" as="geometry">
            <mxRectangle x="158" y="120" width="70" height="30" as="alternateBounds" />
          </mxGeometry>
        </mxCell>
        <mxCell id="hRoWKbpFYFCaURxFquuC-2" value="" style="shape=tableRow;horizontal=0;startSize=0;swimlaneHead=0;swimlaneBody=0;fillColor=none;collapsible=0;dropTarget=0;points=[[0,0.5],[1,0.5]];portConstraint=eastwest;top=0;left=0;right=0;bottom=1;" vertex="1" parent="hRoWKbpFYFCaURxFquuC-1">
          <mxGeometry y="30" width="282" height="30" as="geometry" />
        </mxCell>
        <mxCell id="hRoWKbpFYFCaURxFquuC-3" value="PK" style="shape=partialRectangle;connectable=0;fillColor=none;top=0;left=0;bottom=0;right=0;fontStyle=1;overflow=hidden;whiteSpace=wrap;html=1;" vertex="1" parent="hRoWKbpFYFCaURxFquuC-2">
          <mxGeometry width="30" height="30" as="geometry">
            <mxRectangle width="30" height="30" as="alternateBounds" />
          </mxGeometry>
        </mxCell>
        <mxCell id="hRoWKbpFYFCaURxFquuC-4" value="user_id&amp;nbsp;" style="shape=partialRectangle;connectable=0;fillColor=none;top=0;left=0;bottom=0;right=0;align=left;spacingLeft=6;fontStyle=5;overflow=hidden;whiteSpace=wrap;html=1;" vertex="1" parent="hRoWKbpFYFCaURxFquuC-2">
          <mxGeometry x="30" width="140" height="30" as="geometry">
            <mxRectangle width="140" height="30" as="alternateBounds" />
          </mxGeometry>
        </mxCell>
        <mxCell id="hRoWKbpFYFCaURxFquuC-14" value="INT" style="shape=partialRectangle;connectable=0;fillColor=none;top=0;left=0;bottom=0;right=0;align=left;spacingLeft=6;fontStyle=5;overflow=hidden;whiteSpace=wrap;html=1;" vertex="1" parent="hRoWKbpFYFCaURxFquuC-2">
          <mxGeometry x="170" width="112" height="30" as="geometry">
            <mxRectangle width="112" height="30" as="alternateBounds" />
          </mxGeometry>
        </mxCell>
        <mxCell id="hRoWKbpFYFCaURxFquuC-5" value="" style="shape=tableRow;horizontal=0;startSize=0;swimlaneHead=0;swimlaneBody=0;fillColor=none;collapsible=0;dropTarget=0;points=[[0,0.5],[1,0.5]];portConstraint=eastwest;top=0;left=0;right=0;bottom=0;" vertex="1" parent="hRoWKbpFYFCaURxFquuC-1">
          <mxGeometry y="60" width="282" height="30" as="geometry" />
        </mxCell>
        <mxCell id="hRoWKbpFYFCaURxFquuC-6" value="" style="shape=partialRectangle;connectable=0;fillColor=none;top=0;left=0;bottom=0;right=0;editable=1;overflow=hidden;whiteSpace=wrap;html=1;" vertex="1" parent="hRoWKbpFYFCaURxFquuC-5">
          <mxGeometry width="30" height="30" as="geometry">
            <mxRectangle width="30" height="30" as="alternateBounds" />
          </mxGeometry>
        </mxCell>
        <mxCell id="hRoWKbpFYFCaURxFquuC-7" value="user_name" style="shape=partialRectangle;connectable=0;fillColor=none;top=0;left=0;bottom=0;right=0;align=left;spacingLeft=6;overflow=hidden;whiteSpace=wrap;html=1;" vertex="1" parent="hRoWKbpFYFCaURxFquuC-5">
          <mxGeometry x="30" width="140" height="30" as="geometry">
            <mxRectangle width="140" height="30" as="alternateBounds" />
          </mxGeometry>
        </mxCell>
        <mxCell id="hRoWKbpFYFCaURxFquuC-15" value="VARCHAR" style="shape=partialRectangle;connectable=0;fillColor=none;top=0;left=0;bottom=0;right=0;align=left;spacingLeft=6;overflow=hidden;whiteSpace=wrap;html=1;" vertex="1" parent="hRoWKbpFYFCaURxFquuC-5">
          <mxGeometry x="170" width="112" height="30" as="geometry">
            <mxRectangle width="112" height="30" as="alternateBounds" />
          </mxGeometry>
        </mxCell>
        <mxCell id="hRoWKbpFYFCaURxFquuC-8" value="" style="shape=tableRow;horizontal=0;startSize=0;swimlaneHead=0;swimlaneBody=0;fillColor=none;collapsible=0;dropTarget=0;points=[[0,0.5],[1,0.5]];portConstraint=eastwest;top=0;left=0;right=0;bottom=0;" vertex="1" parent="hRoWKbpFYFCaURxFquuC-1">
          <mxGeometry y="90" width="282" height="30" as="geometry" />
        </mxCell>
        <mxCell id="hRoWKbpFYFCaURxFquuC-9" value="" style="shape=partialRectangle;connectable=0;fillColor=none;top=0;left=0;bottom=0;right=0;editable=1;overflow=hidden;whiteSpace=wrap;html=1;" vertex="1" parent="hRoWKbpFYFCaURxFquuC-8">
          <mxGeometry width="30" height="30" as="geometry">
            <mxRectangle width="30" height="30" as="alternateBounds" />
          </mxGeometry>
        </mxCell>
        <mxCell id="hRoWKbpFYFCaURxFquuC-10" value="count_friends" style="shape=partialRectangle;connectable=0;fillColor=none;top=0;left=0;bottom=0;right=0;align=left;spacingLeft=6;overflow=hidden;whiteSpace=wrap;html=1;" vertex="1" parent="hRoWKbpFYFCaURxFquuC-8">
          <mxGeometry x="30" width="140" height="30" as="geometry">
            <mxRectangle width="140" height="30" as="alternateBounds" />
          </mxGeometry>
        </mxCell>
        <mxCell id="hRoWKbpFYFCaURxFquuC-16" value="INT" style="shape=partialRectangle;connectable=0;fillColor=none;top=0;left=0;bottom=0;right=0;align=left;spacingLeft=6;overflow=hidden;whiteSpace=wrap;html=1;" vertex="1" parent="hRoWKbpFYFCaURxFquuC-8">
          <mxGeometry x="170" width="112" height="30" as="geometry">
            <mxRectangle width="112" height="30" as="alternateBounds" />
          </mxGeometry>
        </mxCell>
        <mxCell id="hRoWKbpFYFCaURxFquuC-11" value="" style="shape=tableRow;horizontal=0;startSize=0;swimlaneHead=0;swimlaneBody=0;fillColor=none;collapsible=0;dropTarget=0;points=[[0,0.5],[1,0.5]];portConstraint=eastwest;top=0;left=0;right=0;bottom=0;" vertex="1" parent="hRoWKbpFYFCaURxFquuC-1">
          <mxGeometry y="120" width="282" height="30" as="geometry" />
        </mxCell>
        <mxCell id="hRoWKbpFYFCaURxFquuC-12" value="" style="shape=partialRectangle;connectable=0;fillColor=none;top=0;left=0;bottom=0;right=0;editable=1;overflow=hidden;whiteSpace=wrap;html=1;" vertex="1" parent="hRoWKbpFYFCaURxFquuC-11">
          <mxGeometry width="30" height="30" as="geometry">
            <mxRectangle width="30" height="30" as="alternateBounds" />
          </mxGeometry>
        </mxCell>
        <mxCell id="hRoWKbpFYFCaURxFquuC-13" value="list_friends" style="shape=partialRectangle;connectable=0;fillColor=none;top=0;left=0;bottom=0;right=0;align=left;spacingLeft=6;overflow=hidden;whiteSpace=wrap;html=1;" vertex="1" parent="hRoWKbpFYFCaURxFquuC-11">
          <mxGeometry x="30" width="140" height="30" as="geometry">
            <mxRectangle width="140" height="30" as="alternateBounds" />
          </mxGeometry>
        </mxCell>
        <mxCell id="hRoWKbpFYFCaURxFquuC-17" value="TEXT" style="shape=partialRectangle;connectable=0;fillColor=none;top=0;left=0;bottom=0;right=0;align=left;spacingLeft=6;overflow=hidden;whiteSpace=wrap;html=1;" vertex="1" parent="hRoWKbpFYFCaURxFquuC-11">
          <mxGeometry x="170" width="112" height="30" as="geometry">
            <mxRectangle width="112" height="30" as="alternateBounds" />
          </mxGeometry>
        </mxCell>
        <mxCell id="hRoWKbpFYFCaURxFquuC-22" style="shape=tableRow;horizontal=0;startSize=0;swimlaneHead=0;swimlaneBody=0;fillColor=none;collapsible=0;dropTarget=0;points=[[0,0.5],[1,0.5]];portConstraint=eastwest;top=0;left=0;right=0;bottom=0;" vertex="1" parent="hRoWKbpFYFCaURxFquuC-1">
          <mxGeometry y="150" width="282" height="30" as="geometry" />
        </mxCell>
        <mxCell id="hRoWKbpFYFCaURxFquuC-23" style="shape=partialRectangle;connectable=0;fillColor=none;top=0;left=0;bottom=0;right=0;editable=1;overflow=hidden;whiteSpace=wrap;html=1;" vertex="1" parent="hRoWKbpFYFCaURxFquuC-22">
          <mxGeometry width="30" height="30" as="geometry">
            <mxRectangle width="30" height="30" as="alternateBounds" />
          </mxGeometry>
        </mxCell>
        <mxCell id="hRoWKbpFYFCaURxFquuC-24" value="user_gender" style="shape=partialRectangle;connectable=0;fillColor=none;top=0;left=0;bottom=0;right=0;align=left;spacingLeft=6;overflow=hidden;whiteSpace=wrap;html=1;" vertex="1" parent="hRoWKbpFYFCaURxFquuC-22">
          <mxGeometry x="30" width="140" height="30" as="geometry">
            <mxRectangle width="140" height="30" as="alternateBounds" />
          </mxGeometry>
        </mxCell>
        <mxCell id="hRoWKbpFYFCaURxFquuC-25" value="CHAR" style="shape=partialRectangle;connectable=0;fillColor=none;top=0;left=0;bottom=0;right=0;align=left;spacingLeft=6;overflow=hidden;whiteSpace=wrap;html=1;" vertex="1" parent="hRoWKbpFYFCaURxFquuC-22">
          <mxGeometry x="170" width="112" height="30" as="geometry">
            <mxRectangle width="112" height="30" as="alternateBounds" />
          </mxGeometry>
        </mxCell>
        <mxCell id="hRoWKbpFYFCaURxFquuC-26" style="shape=tableRow;horizontal=0;startSize=0;swimlaneHead=0;swimlaneBody=0;fillColor=none;collapsible=0;dropTarget=0;points=[[0,0.5],[1,0.5]];portConstraint=eastwest;top=0;left=0;right=0;bottom=0;" vertex="1" parent="hRoWKbpFYFCaURxFquuC-1">
          <mxGeometry y="180" width="282" height="30" as="geometry" />
        </mxCell>
        <mxCell id="hRoWKbpFYFCaURxFquuC-27" style="shape=partialRectangle;connectable=0;fillColor=none;top=0;left=0;bottom=0;right=0;editable=1;overflow=hidden;whiteSpace=wrap;html=1;" vertex="1" parent="hRoWKbpFYFCaURxFquuC-26">
          <mxGeometry width="30" height="30" as="geometry">
            <mxRectangle width="30" height="30" as="alternateBounds" />
          </mxGeometry>
        </mxCell>
        <mxCell id="hRoWKbpFYFCaURxFquuC-28" value="user_country" style="shape=partialRectangle;connectable=0;fillColor=none;top=0;left=0;bottom=0;right=0;align=left;spacingLeft=6;overflow=hidden;whiteSpace=wrap;html=1;" vertex="1" parent="hRoWKbpFYFCaURxFquuC-26">
          <mxGeometry x="30" width="140" height="30" as="geometry">
            <mxRectangle width="140" height="30" as="alternateBounds" />
          </mxGeometry>
        </mxCell>
        <mxCell id="hRoWKbpFYFCaURxFquuC-29" value="VARCHAR" style="shape=partialRectangle;connectable=0;fillColor=none;top=0;left=0;bottom=0;right=0;align=left;spacingLeft=6;overflow=hidden;whiteSpace=wrap;html=1;" vertex="1" parent="hRoWKbpFYFCaURxFquuC-26">
          <mxGeometry x="170" width="112" height="30" as="geometry">
            <mxRectangle width="112" height="30" as="alternateBounds" />
          </mxGeometry>
        </mxCell>
        <mxCell id="hRoWKbpFYFCaURxFquuC-30" style="shape=tableRow;horizontal=0;startSize=0;swimlaneHead=0;swimlaneBody=0;fillColor=none;collapsible=0;dropTarget=0;points=[[0,0.5],[1,0.5]];portConstraint=eastwest;top=0;left=0;right=0;bottom=0;" vertex="1" parent="hRoWKbpFYFCaURxFquuC-1">
          <mxGeometry y="210" width="282" height="30" as="geometry" />
        </mxCell>
        <mxCell id="hRoWKbpFYFCaURxFquuC-31" style="shape=partialRectangle;connectable=0;fillColor=none;top=0;left=0;bottom=0;right=0;editable=1;overflow=hidden;whiteSpace=wrap;html=1;" vertex="1" parent="hRoWKbpFYFCaURxFquuC-30">
          <mxGeometry width="30" height="30" as="geometry">
            <mxRectangle width="30" height="30" as="alternateBounds" />
          </mxGeometry>
        </mxCell>
        <mxCell id="hRoWKbpFYFCaURxFquuC-32" value="user_number" style="shape=partialRectangle;connectable=0;fillColor=none;top=0;left=0;bottom=0;right=0;align=left;spacingLeft=6;overflow=hidden;whiteSpace=wrap;html=1;" vertex="1" parent="hRoWKbpFYFCaURxFquuC-30">
          <mxGeometry x="30" width="140" height="30" as="geometry">
            <mxRectangle width="140" height="30" as="alternateBounds" />
          </mxGeometry>
        </mxCell>
        <mxCell id="hRoWKbpFYFCaURxFquuC-33" value="VARCHAR" style="shape=partialRectangle;connectable=0;fillColor=none;top=0;left=0;bottom=0;right=0;align=left;spacingLeft=6;overflow=hidden;whiteSpace=wrap;html=1;" vertex="1" parent="hRoWKbpFYFCaURxFquuC-30">
          <mxGeometry x="170" width="112" height="30" as="geometry">
            <mxRectangle width="112" height="30" as="alternateBounds" />
          </mxGeometry>
        </mxCell>
        <mxCell id="hRoWKbpFYFCaURxFquuC-34" style="shape=tableRow;horizontal=0;startSize=0;swimlaneHead=0;swimlaneBody=0;fillColor=none;collapsible=0;dropTarget=0;points=[[0,0.5],[1,0.5]];portConstraint=eastwest;top=0;left=0;right=0;bottom=0;" vertex="1" parent="hRoWKbpFYFCaURxFquuC-1">
          <mxGeometry y="240" width="282" height="30" as="geometry" />
        </mxCell>
        <mxCell id="hRoWKbpFYFCaURxFquuC-35" style="shape=partialRectangle;connectable=0;fillColor=none;top=0;left=0;bottom=0;right=0;editable=1;overflow=hidden;whiteSpace=wrap;html=1;" vertex="1" parent="hRoWKbpFYFCaURxFquuC-34">
          <mxGeometry width="30" height="30" as="geometry">
            <mxRectangle width="30" height="30" as="alternateBounds" />
          </mxGeometry>
        </mxCell>
        <mxCell id="hRoWKbpFYFCaURxFquuC-36" value="created_at" style="shape=partialRectangle;connectable=0;fillColor=none;top=0;left=0;bottom=0;right=0;align=left;spacingLeft=6;overflow=hidden;whiteSpace=wrap;html=1;" vertex="1" parent="hRoWKbpFYFCaURxFquuC-34">
          <mxGeometry x="30" width="140" height="30" as="geometry">
            <mxRectangle width="140" height="30" as="alternateBounds" />
          </mxGeometry>
        </mxCell>
        <mxCell id="hRoWKbpFYFCaURxFquuC-37" value="TIMESTAMPTZ" style="shape=partialRectangle;connectable=0;fillColor=none;top=0;left=0;bottom=0;right=0;align=left;spacingLeft=6;overflow=hidden;whiteSpace=wrap;html=1;" vertex="1" parent="hRoWKbpFYFCaURxFquuC-34">
          <mxGeometry x="170" width="112" height="30" as="geometry">
            <mxRectangle width="112" height="30" as="alternateBounds" />
          </mxGeometry>
        </mxCell>
        <mxCell id="hRoWKbpFYFCaURxFquuC-38" value="community" style="shape=table;startSize=30;container=1;collapsible=1;childLayout=tableLayout;fixedRows=1;rowLines=0;fontStyle=1;align=center;resizeLast=1;html=1;" vertex="1" parent="1">
          <mxGeometry x="400" y="80" width="282" height="190" as="geometry">
            <mxRectangle x="158" y="120" width="70" height="30" as="alternateBounds" />
          </mxGeometry>
        </mxCell>
        <mxCell id="hRoWKbpFYFCaURxFquuC-39" value="" style="shape=tableRow;horizontal=0;startSize=0;swimlaneHead=0;swimlaneBody=0;fillColor=none;collapsible=0;dropTarget=0;points=[[0,0.5],[1,0.5]];portConstraint=eastwest;top=0;left=0;right=0;bottom=1;" vertex="1" parent="hRoWKbpFYFCaURxFquuC-38">
          <mxGeometry y="30" width="282" height="30" as="geometry" />
        </mxCell>
        <mxCell id="hRoWKbpFYFCaURxFquuC-40" value="PK" style="shape=partialRectangle;connectable=0;fillColor=none;top=0;left=0;bottom=0;right=0;fontStyle=1;overflow=hidden;whiteSpace=wrap;html=1;" vertex="1" parent="hRoWKbpFYFCaURxFquuC-39">
          <mxGeometry width="30" height="30" as="geometry">
            <mxRectangle width="30" height="30" as="alternateBounds" />
          </mxGeometry>
        </mxCell>
        <mxCell id="hRoWKbpFYFCaURxFquuC-41" value="community_id" style="shape=partialRectangle;connectable=0;fillColor=none;top=0;left=0;bottom=0;right=0;align=left;spacingLeft=6;fontStyle=5;overflow=hidden;whiteSpace=wrap;html=1;" vertex="1" parent="hRoWKbpFYFCaURxFquuC-39">
          <mxGeometry x="30" width="140" height="30" as="geometry">
            <mxRectangle width="140" height="30" as="alternateBounds" />
          </mxGeometry>
        </mxCell>
        <mxCell id="hRoWKbpFYFCaURxFquuC-42" value="INT" style="shape=partialRectangle;connectable=0;fillColor=none;top=0;left=0;bottom=0;right=0;align=left;spacingLeft=6;fontStyle=5;overflow=hidden;whiteSpace=wrap;html=1;" vertex="1" parent="hRoWKbpFYFCaURxFquuC-39">
          <mxGeometry x="170" width="112" height="30" as="geometry">
            <mxRectangle width="112" height="30" as="alternateBounds" />
          </mxGeometry>
        </mxCell>
        <mxCell id="hRoWKbpFYFCaURxFquuC-43" value="" style="shape=tableRow;horizontal=0;startSize=0;swimlaneHead=0;swimlaneBody=0;fillColor=none;collapsible=0;dropTarget=0;points=[[0,0.5],[1,0.5]];portConstraint=eastwest;top=0;left=0;right=0;bottom=0;" vertex="1" parent="hRoWKbpFYFCaURxFquuC-38">
          <mxGeometry y="60" width="282" height="30" as="geometry" />
        </mxCell>
        <mxCell id="hRoWKbpFYFCaURxFquuC-44" value="" style="shape=partialRectangle;connectable=0;fillColor=none;top=0;left=0;bottom=0;right=0;editable=1;overflow=hidden;whiteSpace=wrap;html=1;" vertex="1" parent="hRoWKbpFYFCaURxFquuC-43">
          <mxGeometry width="30" height="30" as="geometry">
            <mxRectangle width="30" height="30" as="alternateBounds" />
          </mxGeometry>
        </mxCell>
        <mxCell id="hRoWKbpFYFCaURxFquuC-45" value="group_name" style="shape=partialRectangle;connectable=0;fillColor=none;top=0;left=0;bottom=0;right=0;align=left;spacingLeft=6;overflow=hidden;whiteSpace=wrap;html=1;" vertex="1" parent="hRoWKbpFYFCaURxFquuC-43">
          <mxGeometry x="30" width="140" height="30" as="geometry">
            <mxRectangle width="140" height="30" as="alternateBounds" />
          </mxGeometry>
        </mxCell>
        <mxCell id="hRoWKbpFYFCaURxFquuC-46" value="VARCHAR" style="shape=partialRectangle;connectable=0;fillColor=none;top=0;left=0;bottom=0;right=0;align=left;spacingLeft=6;overflow=hidden;whiteSpace=wrap;html=1;" vertex="1" parent="hRoWKbpFYFCaURxFquuC-43">
          <mxGeometry x="170" width="112" height="30" as="geometry">
            <mxRectangle width="112" height="30" as="alternateBounds" />
          </mxGeometry>
        </mxCell>
        <mxCell id="hRoWKbpFYFCaURxFquuC-47" value="" style="shape=tableRow;horizontal=0;startSize=0;swimlaneHead=0;swimlaneBody=0;fillColor=none;collapsible=0;dropTarget=0;points=[[0,0.5],[1,0.5]];portConstraint=eastwest;top=0;left=0;right=0;bottom=0;" vertex="1" parent="hRoWKbpFYFCaURxFquuC-38">
          <mxGeometry y="90" width="282" height="30" as="geometry" />
        </mxCell>
        <mxCell id="hRoWKbpFYFCaURxFquuC-48" value="" style="shape=partialRectangle;connectable=0;fillColor=none;top=0;left=0;bottom=0;right=0;editable=1;overflow=hidden;whiteSpace=wrap;html=1;" vertex="1" parent="hRoWKbpFYFCaURxFquuC-47">
          <mxGeometry width="30" height="30" as="geometry">
            <mxRectangle width="30" height="30" as="alternateBounds" />
          </mxGeometry>
        </mxCell>
        <mxCell id="hRoWKbpFYFCaURxFquuC-49" value="count_posts" style="shape=partialRectangle;connectable=0;fillColor=none;top=0;left=0;bottom=0;right=0;align=left;spacingLeft=6;overflow=hidden;whiteSpace=wrap;html=1;" vertex="1" parent="hRoWKbpFYFCaURxFquuC-47">
          <mxGeometry x="30" width="140" height="30" as="geometry">
            <mxRectangle width="140" height="30" as="alternateBounds" />
          </mxGeometry>
        </mxCell>
        <mxCell id="hRoWKbpFYFCaURxFquuC-50" value="INT" style="shape=partialRectangle;connectable=0;fillColor=none;top=0;left=0;bottom=0;right=0;align=left;spacingLeft=6;overflow=hidden;whiteSpace=wrap;html=1;" vertex="1" parent="hRoWKbpFYFCaURxFquuC-47">
          <mxGeometry x="170" width="112" height="30" as="geometry">
            <mxRectangle width="112" height="30" as="alternateBounds" />
          </mxGeometry>
        </mxCell>
        <mxCell id="hRoWKbpFYFCaURxFquuC-55" style="shape=tableRow;horizontal=0;startSize=0;swimlaneHead=0;swimlaneBody=0;fillColor=none;collapsible=0;dropTarget=0;points=[[0,0.5],[1,0.5]];portConstraint=eastwest;top=0;left=0;right=0;bottom=0;" vertex="1" parent="hRoWKbpFYFCaURxFquuC-38">
          <mxGeometry y="120" width="282" height="70" as="geometry" />
        </mxCell>
        <mxCell id="hRoWKbpFYFCaURxFquuC-56" style="shape=partialRectangle;connectable=0;fillColor=none;top=0;left=0;bottom=0;right=0;editable=1;overflow=hidden;whiteSpace=wrap;html=1;" vertex="1" parent="hRoWKbpFYFCaURxFquuC-55">
          <mxGeometry width="30" height="70" as="geometry">
            <mxRectangle width="30" height="70" as="alternateBounds" />
          </mxGeometry>
        </mxCell>
        <mxCell id="hRoWKbpFYFCaURxFquuC-57" value="send_available" style="shape=partialRectangle;connectable=0;fillColor=none;top=0;left=0;bottom=0;right=0;align=left;spacingLeft=6;overflow=hidden;whiteSpace=wrap;html=1;" vertex="1" parent="hRoWKbpFYFCaURxFquuC-55">
          <mxGeometry x="30" width="140" height="70" as="geometry">
            <mxRectangle width="140" height="70" as="alternateBounds" />
          </mxGeometry>
        </mxCell>
        <mxCell id="hRoWKbpFYFCaURxFquuC-58" value="BOOLEAN" style="shape=partialRectangle;connectable=0;fillColor=none;top=0;left=0;bottom=0;right=0;align=left;spacingLeft=6;overflow=hidden;whiteSpace=wrap;html=1;" vertex="1" parent="hRoWKbpFYFCaURxFquuC-55">
          <mxGeometry x="170" width="112" height="70" as="geometry">
            <mxRectangle width="112" height="70" as="alternateBounds" />
          </mxGeometry>
        </mxCell>
        <mxCell id="hRoWKbpFYFCaURxFquuC-76" value="post" style="shape=table;startSize=30;container=1;collapsible=1;childLayout=tableLayout;fixedRows=1;rowLines=0;fontStyle=1;align=center;resizeLast=1;html=1;" vertex="1" parent="1">
          <mxGeometry x="880" y="80" width="282" height="210" as="geometry">
            <mxRectangle x="158" y="120" width="70" height="30" as="alternateBounds" />
          </mxGeometry>
        </mxCell>
        <mxCell id="hRoWKbpFYFCaURxFquuC-77" value="" style="shape=tableRow;horizontal=0;startSize=0;swimlaneHead=0;swimlaneBody=0;fillColor=none;collapsible=0;dropTarget=0;points=[[0,0.5],[1,0.5]];portConstraint=eastwest;top=0;left=0;right=0;bottom=1;" vertex="1" parent="hRoWKbpFYFCaURxFquuC-76">
          <mxGeometry y="30" width="282" height="30" as="geometry" />
        </mxCell>
        <mxCell id="hRoWKbpFYFCaURxFquuC-78" value="PK" style="shape=partialRectangle;connectable=0;fillColor=none;top=0;left=0;bottom=0;right=0;fontStyle=1;overflow=hidden;whiteSpace=wrap;html=1;" vertex="1" parent="hRoWKbpFYFCaURxFquuC-77">
          <mxGeometry width="30" height="30" as="geometry">
            <mxRectangle width="30" height="30" as="alternateBounds" />
          </mxGeometry>
        </mxCell>
        <mxCell id="hRoWKbpFYFCaURxFquuC-79" value="post_id" style="shape=partialRectangle;connectable=0;fillColor=none;top=0;left=0;bottom=0;right=0;align=left;spacingLeft=6;fontStyle=5;overflow=hidden;whiteSpace=wrap;html=1;" vertex="1" parent="hRoWKbpFYFCaURxFquuC-77">
          <mxGeometry x="30" width="140" height="30" as="geometry">
            <mxRectangle width="140" height="30" as="alternateBounds" />
          </mxGeometry>
        </mxCell>
        <mxCell id="hRoWKbpFYFCaURxFquuC-80" value="INT" style="shape=partialRectangle;connectable=0;fillColor=none;top=0;left=0;bottom=0;right=0;align=left;spacingLeft=6;fontStyle=5;overflow=hidden;whiteSpace=wrap;html=1;" vertex="1" parent="hRoWKbpFYFCaURxFquuC-77">
          <mxGeometry x="170" width="112" height="30" as="geometry">
            <mxRectangle width="112" height="30" as="alternateBounds" />
          </mxGeometry>
        </mxCell>
        <mxCell id="hRoWKbpFYFCaURxFquuC-197" style="shape=tableRow;horizontal=0;startSize=0;swimlaneHead=0;swimlaneBody=0;fillColor=none;collapsible=0;dropTarget=0;points=[[0,0.5],[1,0.5]];portConstraint=eastwest;top=0;left=0;right=0;bottom=1;" vertex="1" parent="hRoWKbpFYFCaURxFquuC-76">
          <mxGeometry y="60" width="282" height="30" as="geometry" />
        </mxCell>
        <mxCell id="hRoWKbpFYFCaURxFquuC-198" value="FK" style="shape=partialRectangle;connectable=0;fillColor=none;top=0;left=0;bottom=0;right=0;fontStyle=1;overflow=hidden;whiteSpace=wrap;html=1;" vertex="1" parent="hRoWKbpFYFCaURxFquuC-197">
          <mxGeometry width="30" height="30" as="geometry">
            <mxRectangle width="30" height="30" as="alternateBounds" />
          </mxGeometry>
        </mxCell>
        <mxCell id="hRoWKbpFYFCaURxFquuC-199" value="community_id" style="shape=partialRectangle;connectable=0;fillColor=none;top=0;left=0;bottom=0;right=0;align=left;spacingLeft=6;fontStyle=5;overflow=hidden;whiteSpace=wrap;html=1;" vertex="1" parent="hRoWKbpFYFCaURxFquuC-197">
          <mxGeometry x="30" width="140" height="30" as="geometry">
            <mxRectangle width="140" height="30" as="alternateBounds" />
          </mxGeometry>
        </mxCell>
        <mxCell id="hRoWKbpFYFCaURxFquuC-200" value="INT" style="shape=partialRectangle;connectable=0;fillColor=none;top=0;left=0;bottom=0;right=0;align=left;spacingLeft=6;fontStyle=5;overflow=hidden;whiteSpace=wrap;html=1;" vertex="1" parent="hRoWKbpFYFCaURxFquuC-197">
          <mxGeometry x="170" width="112" height="30" as="geometry">
            <mxRectangle width="112" height="30" as="alternateBounds" />
          </mxGeometry>
        </mxCell>
        <mxCell id="hRoWKbpFYFCaURxFquuC-81" value="" style="shape=tableRow;horizontal=0;startSize=0;swimlaneHead=0;swimlaneBody=0;fillColor=none;collapsible=0;dropTarget=0;points=[[0,0.5],[1,0.5]];portConstraint=eastwest;top=0;left=0;right=0;bottom=0;" vertex="1" parent="hRoWKbpFYFCaURxFquuC-76">
          <mxGeometry y="90" width="282" height="30" as="geometry" />
        </mxCell>
        <mxCell id="hRoWKbpFYFCaURxFquuC-82" value="" style="shape=partialRectangle;connectable=0;fillColor=none;top=0;left=0;bottom=0;right=0;editable=1;overflow=hidden;whiteSpace=wrap;html=1;" vertex="1" parent="hRoWKbpFYFCaURxFquuC-81">
          <mxGeometry width="30" height="30" as="geometry">
            <mxRectangle width="30" height="30" as="alternateBounds" />
          </mxGeometry>
        </mxCell>
        <mxCell id="hRoWKbpFYFCaURxFquuC-83" value="post_content" style="shape=partialRectangle;connectable=0;fillColor=none;top=0;left=0;bottom=0;right=0;align=left;spacingLeft=6;overflow=hidden;whiteSpace=wrap;html=1;" vertex="1" parent="hRoWKbpFYFCaURxFquuC-81">
          <mxGeometry x="30" width="140" height="30" as="geometry">
            <mxRectangle width="140" height="30" as="alternateBounds" />
          </mxGeometry>
        </mxCell>
        <mxCell id="hRoWKbpFYFCaURxFquuC-84" value="TEXT" style="shape=partialRectangle;connectable=0;fillColor=none;top=0;left=0;bottom=0;right=0;align=left;spacingLeft=6;overflow=hidden;whiteSpace=wrap;html=1;" vertex="1" parent="hRoWKbpFYFCaURxFquuC-81">
          <mxGeometry x="170" width="112" height="30" as="geometry">
            <mxRectangle width="112" height="30" as="alternateBounds" />
          </mxGeometry>
        </mxCell>
        <mxCell id="hRoWKbpFYFCaURxFquuC-85" value="" style="shape=tableRow;horizontal=0;startSize=0;swimlaneHead=0;swimlaneBody=0;fillColor=none;collapsible=0;dropTarget=0;points=[[0,0.5],[1,0.5]];portConstraint=eastwest;top=0;left=0;right=0;bottom=0;" vertex="1" parent="hRoWKbpFYFCaURxFquuC-76">
          <mxGeometry y="120" width="282" height="30" as="geometry" />
        </mxCell>
        <mxCell id="hRoWKbpFYFCaURxFquuC-86" value="" style="shape=partialRectangle;connectable=0;fillColor=none;top=0;left=0;bottom=0;right=0;editable=1;overflow=hidden;whiteSpace=wrap;html=1;" vertex="1" parent="hRoWKbpFYFCaURxFquuC-85">
          <mxGeometry width="30" height="30" as="geometry">
            <mxRectangle width="30" height="30" as="alternateBounds" />
          </mxGeometry>
        </mxCell>
        <mxCell id="hRoWKbpFYFCaURxFquuC-87" value="post_time" style="shape=partialRectangle;connectable=0;fillColor=none;top=0;left=0;bottom=0;right=0;align=left;spacingLeft=6;overflow=hidden;whiteSpace=wrap;html=1;" vertex="1" parent="hRoWKbpFYFCaURxFquuC-85">
          <mxGeometry x="30" width="140" height="30" as="geometry">
            <mxRectangle width="140" height="30" as="alternateBounds" />
          </mxGeometry>
        </mxCell>
        <mxCell id="hRoWKbpFYFCaURxFquuC-88" value="TIMESTAMPTZ" style="shape=partialRectangle;connectable=0;fillColor=none;top=0;left=0;bottom=0;right=0;align=left;spacingLeft=6;overflow=hidden;whiteSpace=wrap;html=1;" vertex="1" parent="hRoWKbpFYFCaURxFquuC-85">
          <mxGeometry x="170" width="112" height="30" as="geometry">
            <mxRectangle width="112" height="30" as="alternateBounds" />
          </mxGeometry>
        </mxCell>
        <mxCell id="hRoWKbpFYFCaURxFquuC-89" style="shape=tableRow;horizontal=0;startSize=0;swimlaneHead=0;swimlaneBody=0;fillColor=none;collapsible=0;dropTarget=0;points=[[0,0.5],[1,0.5]];portConstraint=eastwest;top=0;left=0;right=0;bottom=0;" vertex="1" parent="hRoWKbpFYFCaURxFquuC-76">
          <mxGeometry y="150" width="282" height="30" as="geometry" />
        </mxCell>
        <mxCell id="hRoWKbpFYFCaURxFquuC-90" style="shape=partialRectangle;connectable=0;fillColor=none;top=0;left=0;bottom=0;right=0;editable=1;overflow=hidden;whiteSpace=wrap;html=1;" vertex="1" parent="hRoWKbpFYFCaURxFquuC-89">
          <mxGeometry width="30" height="30" as="geometry">
            <mxRectangle width="30" height="30" as="alternateBounds" />
          </mxGeometry>
        </mxCell>
        <mxCell id="hRoWKbpFYFCaURxFquuC-91" value="count_likes" style="shape=partialRectangle;connectable=0;fillColor=none;top=0;left=0;bottom=0;right=0;align=left;spacingLeft=6;overflow=hidden;whiteSpace=wrap;html=1;" vertex="1" parent="hRoWKbpFYFCaURxFquuC-89">
          <mxGeometry x="30" width="140" height="30" as="geometry">
            <mxRectangle width="140" height="30" as="alternateBounds" />
          </mxGeometry>
        </mxCell>
        <mxCell id="hRoWKbpFYFCaURxFquuC-92" value="INT" style="shape=partialRectangle;connectable=0;fillColor=none;top=0;left=0;bottom=0;right=0;align=left;spacingLeft=6;overflow=hidden;whiteSpace=wrap;html=1;" vertex="1" parent="hRoWKbpFYFCaURxFquuC-89">
          <mxGeometry x="170" width="112" height="30" as="geometry">
            <mxRectangle width="112" height="30" as="alternateBounds" />
          </mxGeometry>
        </mxCell>
        <mxCell id="hRoWKbpFYFCaURxFquuC-93" style="shape=tableRow;horizontal=0;startSize=0;swimlaneHead=0;swimlaneBody=0;fillColor=none;collapsible=0;dropTarget=0;points=[[0,0.5],[1,0.5]];portConstraint=eastwest;top=0;left=0;right=0;bottom=0;" vertex="1" parent="hRoWKbpFYFCaURxFquuC-76">
          <mxGeometry y="180" width="282" height="30" as="geometry" />
        </mxCell>
        <mxCell id="hRoWKbpFYFCaURxFquuC-94" style="shape=partialRectangle;connectable=0;fillColor=none;top=0;left=0;bottom=0;right=0;editable=1;overflow=hidden;whiteSpace=wrap;html=1;" vertex="1" parent="hRoWKbpFYFCaURxFquuC-93">
          <mxGeometry width="30" height="30" as="geometry">
            <mxRectangle width="30" height="30" as="alternateBounds" />
          </mxGeometry>
        </mxCell>
        <mxCell id="hRoWKbpFYFCaURxFquuC-95" value="post_link" style="shape=partialRectangle;connectable=0;fillColor=none;top=0;left=0;bottom=0;right=0;align=left;spacingLeft=6;overflow=hidden;whiteSpace=wrap;html=1;" vertex="1" parent="hRoWKbpFYFCaURxFquuC-93">
          <mxGeometry x="30" width="140" height="30" as="geometry">
            <mxRectangle width="140" height="30" as="alternateBounds" />
          </mxGeometry>
        </mxCell>
        <mxCell id="hRoWKbpFYFCaURxFquuC-96" value="TEXT" style="shape=partialRectangle;connectable=0;fillColor=none;top=0;left=0;bottom=0;right=0;align=left;spacingLeft=6;overflow=hidden;whiteSpace=wrap;html=1;" vertex="1" parent="hRoWKbpFYFCaURxFquuC-93">
          <mxGeometry x="170" width="112" height="30" as="geometry">
            <mxRectangle width="112" height="30" as="alternateBounds" />
          </mxGeometry>
        </mxCell>
        <mxCell id="hRoWKbpFYFCaURxFquuC-97" value="message" style="shape=table;startSize=30;container=1;collapsible=1;childLayout=tableLayout;fixedRows=1;rowLines=0;fontStyle=1;align=center;resizeLast=1;html=1;" vertex="1" parent="1">
          <mxGeometry x="400" y="320" width="282" height="270" as="geometry">
            <mxRectangle x="158" y="120" width="70" height="30" as="alternateBounds" />
          </mxGeometry>
        </mxCell>
        <mxCell id="hRoWKbpFYFCaURxFquuC-98" value="" style="shape=tableRow;horizontal=0;startSize=0;swimlaneHead=0;swimlaneBody=0;fillColor=none;collapsible=0;dropTarget=0;points=[[0,0.5],[1,0.5]];portConstraint=eastwest;top=0;left=0;right=0;bottom=1;" vertex="1" parent="hRoWKbpFYFCaURxFquuC-97">
          <mxGeometry y="30" width="282" height="30" as="geometry" />
        </mxCell>
        <mxCell id="hRoWKbpFYFCaURxFquuC-99" value="PK" style="shape=partialRectangle;connectable=0;fillColor=none;top=0;left=0;bottom=0;right=0;fontStyle=1;overflow=hidden;whiteSpace=wrap;html=1;" vertex="1" parent="hRoWKbpFYFCaURxFquuC-98">
          <mxGeometry width="30" height="30" as="geometry">
            <mxRectangle width="30" height="30" as="alternateBounds" />
          </mxGeometry>
        </mxCell>
        <mxCell id="hRoWKbpFYFCaURxFquuC-100" value="message_id" style="shape=partialRectangle;connectable=0;fillColor=none;top=0;left=0;bottom=0;right=0;align=left;spacingLeft=6;fontStyle=5;overflow=hidden;whiteSpace=wrap;html=1;" vertex="1" parent="hRoWKbpFYFCaURxFquuC-98">
          <mxGeometry x="30" width="140" height="30" as="geometry">
            <mxRectangle width="140" height="30" as="alternateBounds" />
          </mxGeometry>
        </mxCell>
        <mxCell id="hRoWKbpFYFCaURxFquuC-101" value="INT" style="shape=partialRectangle;connectable=0;fillColor=none;top=0;left=0;bottom=0;right=0;align=left;spacingLeft=6;fontStyle=5;overflow=hidden;whiteSpace=wrap;html=1;" vertex="1" parent="hRoWKbpFYFCaURxFquuC-98">
          <mxGeometry x="170" width="112" height="30" as="geometry">
            <mxRectangle width="112" height="30" as="alternateBounds" />
          </mxGeometry>
        </mxCell>
        <mxCell id="hRoWKbpFYFCaURxFquuC-130" style="shape=tableRow;horizontal=0;startSize=0;swimlaneHead=0;swimlaneBody=0;fillColor=none;collapsible=0;dropTarget=0;points=[[0,0.5],[1,0.5]];portConstraint=eastwest;top=0;left=0;right=0;bottom=1;" vertex="1" parent="hRoWKbpFYFCaURxFquuC-97">
          <mxGeometry y="60" width="282" height="30" as="geometry" />
        </mxCell>
        <mxCell id="hRoWKbpFYFCaURxFquuC-131" value="FK" style="shape=partialRectangle;connectable=0;fillColor=none;top=0;left=0;bottom=0;right=0;fontStyle=1;overflow=hidden;whiteSpace=wrap;html=1;" vertex="1" parent="hRoWKbpFYFCaURxFquuC-130">
          <mxGeometry width="30" height="30" as="geometry">
            <mxRectangle width="30" height="30" as="alternateBounds" />
          </mxGeometry>
        </mxCell>
        <mxCell id="hRoWKbpFYFCaURxFquuC-132" value="post_id" style="shape=partialRectangle;connectable=0;fillColor=none;top=0;left=0;bottom=0;right=0;align=left;spacingLeft=6;fontStyle=5;overflow=hidden;whiteSpace=wrap;html=1;" vertex="1" parent="hRoWKbpFYFCaURxFquuC-130">
          <mxGeometry x="30" width="140" height="30" as="geometry">
            <mxRectangle width="140" height="30" as="alternateBounds" />
          </mxGeometry>
        </mxCell>
        <mxCell id="hRoWKbpFYFCaURxFquuC-133" value="INT" style="shape=partialRectangle;connectable=0;fillColor=none;top=0;left=0;bottom=0;right=0;align=left;spacingLeft=6;fontStyle=5;overflow=hidden;whiteSpace=wrap;html=1;" vertex="1" parent="hRoWKbpFYFCaURxFquuC-130">
          <mxGeometry x="170" width="112" height="30" as="geometry">
            <mxRectangle width="112" height="30" as="alternateBounds" />
          </mxGeometry>
        </mxCell>
        <mxCell id="hRoWKbpFYFCaURxFquuC-126" style="shape=tableRow;horizontal=0;startSize=0;swimlaneHead=0;swimlaneBody=0;fillColor=none;collapsible=0;dropTarget=0;points=[[0,0.5],[1,0.5]];portConstraint=eastwest;top=0;left=0;right=0;bottom=1;" vertex="1" parent="hRoWKbpFYFCaURxFquuC-97">
          <mxGeometry y="90" width="282" height="30" as="geometry" />
        </mxCell>
        <mxCell id="hRoWKbpFYFCaURxFquuC-127" value="FK" style="shape=partialRectangle;connectable=0;fillColor=none;top=0;left=0;bottom=0;right=0;fontStyle=1;overflow=hidden;whiteSpace=wrap;html=1;" vertex="1" parent="hRoWKbpFYFCaURxFquuC-126">
          <mxGeometry width="30" height="30" as="geometry">
            <mxRectangle width="30" height="30" as="alternateBounds" />
          </mxGeometry>
        </mxCell>
        <mxCell id="hRoWKbpFYFCaURxFquuC-128" value="user_id" style="shape=partialRectangle;connectable=0;fillColor=none;top=0;left=0;bottom=0;right=0;align=left;spacingLeft=6;fontStyle=5;overflow=hidden;whiteSpace=wrap;html=1;" vertex="1" parent="hRoWKbpFYFCaURxFquuC-126">
          <mxGeometry x="30" width="140" height="30" as="geometry">
            <mxRectangle width="140" height="30" as="alternateBounds" />
          </mxGeometry>
        </mxCell>
        <mxCell id="hRoWKbpFYFCaURxFquuC-129" value="INT" style="shape=partialRectangle;connectable=0;fillColor=none;top=0;left=0;bottom=0;right=0;align=left;spacingLeft=6;fontStyle=5;overflow=hidden;whiteSpace=wrap;html=1;" vertex="1" parent="hRoWKbpFYFCaURxFquuC-126">
          <mxGeometry x="170" width="112" height="30" as="geometry">
            <mxRectangle width="112" height="30" as="alternateBounds" />
          </mxGeometry>
        </mxCell>
        <mxCell id="hRoWKbpFYFCaURxFquuC-183" style="shape=tableRow;horizontal=0;startSize=0;swimlaneHead=0;swimlaneBody=0;fillColor=none;collapsible=0;dropTarget=0;points=[[0,0.5],[1,0.5]];portConstraint=eastwest;top=0;left=0;right=0;bottom=1;" vertex="1" parent="hRoWKbpFYFCaURxFquuC-97">
          <mxGeometry y="120" width="282" height="30" as="geometry" />
        </mxCell>
        <mxCell id="hRoWKbpFYFCaURxFquuC-184" value="FK" style="shape=partialRectangle;connectable=0;fillColor=none;top=0;left=0;bottom=0;right=0;fontStyle=1;overflow=hidden;whiteSpace=wrap;html=1;" vertex="1" parent="hRoWKbpFYFCaURxFquuC-183">
          <mxGeometry width="30" height="30" as="geometry">
            <mxRectangle width="30" height="30" as="alternateBounds" />
          </mxGeometry>
        </mxCell>
        <mxCell id="hRoWKbpFYFCaURxFquuC-185" value="friend_id" style="shape=partialRectangle;connectable=0;fillColor=none;top=0;left=0;bottom=0;right=0;align=left;spacingLeft=6;fontStyle=5;overflow=hidden;whiteSpace=wrap;html=1;" vertex="1" parent="hRoWKbpFYFCaURxFquuC-183">
          <mxGeometry x="30" width="140" height="30" as="geometry">
            <mxRectangle width="140" height="30" as="alternateBounds" />
          </mxGeometry>
        </mxCell>
        <mxCell id="hRoWKbpFYFCaURxFquuC-186" value="INT" style="shape=partialRectangle;connectable=0;fillColor=none;top=0;left=0;bottom=0;right=0;align=left;spacingLeft=6;fontStyle=5;overflow=hidden;whiteSpace=wrap;html=1;" vertex="1" parent="hRoWKbpFYFCaURxFquuC-183">
          <mxGeometry x="170" width="112" height="30" as="geometry">
            <mxRectangle width="112" height="30" as="alternateBounds" />
          </mxGeometry>
        </mxCell>
        <mxCell id="hRoWKbpFYFCaURxFquuC-102" value="" style="shape=tableRow;horizontal=0;startSize=0;swimlaneHead=0;swimlaneBody=0;fillColor=none;collapsible=0;dropTarget=0;points=[[0,0.5],[1,0.5]];portConstraint=eastwest;top=0;left=0;right=0;bottom=0;" vertex="1" parent="hRoWKbpFYFCaURxFquuC-97">
          <mxGeometry y="150" width="282" height="30" as="geometry" />
        </mxCell>
        <mxCell id="hRoWKbpFYFCaURxFquuC-103" value="" style="shape=partialRectangle;connectable=0;fillColor=none;top=0;left=0;bottom=0;right=0;editable=1;overflow=hidden;whiteSpace=wrap;html=1;" vertex="1" parent="hRoWKbpFYFCaURxFquuC-102">
          <mxGeometry width="30" height="30" as="geometry">
            <mxRectangle width="30" height="30" as="alternateBounds" />
          </mxGeometry>
        </mxCell>
        <mxCell id="hRoWKbpFYFCaURxFquuC-104" value="send" style="shape=partialRectangle;connectable=0;fillColor=none;top=0;left=0;bottom=0;right=0;align=left;spacingLeft=6;overflow=hidden;whiteSpace=wrap;html=1;" vertex="1" parent="hRoWKbpFYFCaURxFquuC-102">
          <mxGeometry x="30" width="140" height="30" as="geometry">
            <mxRectangle width="140" height="30" as="alternateBounds" />
          </mxGeometry>
        </mxCell>
        <mxCell id="hRoWKbpFYFCaURxFquuC-105" value="TEXT" style="shape=partialRectangle;connectable=0;fillColor=none;top=0;left=0;bottom=0;right=0;align=left;spacingLeft=6;overflow=hidden;whiteSpace=wrap;html=1;" vertex="1" parent="hRoWKbpFYFCaURxFquuC-102">
          <mxGeometry x="170" width="112" height="30" as="geometry">
            <mxRectangle width="112" height="30" as="alternateBounds" />
          </mxGeometry>
        </mxCell>
        <mxCell id="hRoWKbpFYFCaURxFquuC-106" value="" style="shape=tableRow;horizontal=0;startSize=0;swimlaneHead=0;swimlaneBody=0;fillColor=none;collapsible=0;dropTarget=0;points=[[0,0.5],[1,0.5]];portConstraint=eastwest;top=0;left=0;right=0;bottom=0;" vertex="1" parent="hRoWKbpFYFCaURxFquuC-97">
          <mxGeometry y="180" width="282" height="30" as="geometry" />
        </mxCell>
        <mxCell id="hRoWKbpFYFCaURxFquuC-107" value="" style="shape=partialRectangle;connectable=0;fillColor=none;top=0;left=0;bottom=0;right=0;editable=1;overflow=hidden;whiteSpace=wrap;html=1;" vertex="1" parent="hRoWKbpFYFCaURxFquuC-106">
          <mxGeometry width="30" height="30" as="geometry">
            <mxRectangle width="30" height="30" as="alternateBounds" />
          </mxGeometry>
        </mxCell>
        <mxCell id="hRoWKbpFYFCaURxFquuC-108" value="post_time" style="shape=partialRectangle;connectable=0;fillColor=none;top=0;left=0;bottom=0;right=0;align=left;spacingLeft=6;overflow=hidden;whiteSpace=wrap;html=1;" vertex="1" parent="hRoWKbpFYFCaURxFquuC-106">
          <mxGeometry x="30" width="140" height="30" as="geometry">
            <mxRectangle width="140" height="30" as="alternateBounds" />
          </mxGeometry>
        </mxCell>
        <mxCell id="hRoWKbpFYFCaURxFquuC-109" value="TIMESTAMPTZ" style="shape=partialRectangle;connectable=0;fillColor=none;top=0;left=0;bottom=0;right=0;align=left;spacingLeft=6;overflow=hidden;whiteSpace=wrap;html=1;" vertex="1" parent="hRoWKbpFYFCaURxFquuC-106">
          <mxGeometry x="170" width="112" height="30" as="geometry">
            <mxRectangle width="112" height="30" as="alternateBounds" />
          </mxGeometry>
        </mxCell>
        <mxCell id="hRoWKbpFYFCaURxFquuC-110" style="shape=tableRow;horizontal=0;startSize=0;swimlaneHead=0;swimlaneBody=0;fillColor=none;collapsible=0;dropTarget=0;points=[[0,0.5],[1,0.5]];portConstraint=eastwest;top=0;left=0;right=0;bottom=0;" vertex="1" parent="hRoWKbpFYFCaURxFquuC-97">
          <mxGeometry y="210" width="282" height="30" as="geometry" />
        </mxCell>
        <mxCell id="hRoWKbpFYFCaURxFquuC-111" style="shape=partialRectangle;connectable=0;fillColor=none;top=0;left=0;bottom=0;right=0;editable=1;overflow=hidden;whiteSpace=wrap;html=1;" vertex="1" parent="hRoWKbpFYFCaURxFquuC-110">
          <mxGeometry width="30" height="30" as="geometry">
            <mxRectangle width="30" height="30" as="alternateBounds" />
          </mxGeometry>
        </mxCell>
        <mxCell id="hRoWKbpFYFCaURxFquuC-112" value="count_likes" style="shape=partialRectangle;connectable=0;fillColor=none;top=0;left=0;bottom=0;right=0;align=left;spacingLeft=6;overflow=hidden;whiteSpace=wrap;html=1;" vertex="1" parent="hRoWKbpFYFCaURxFquuC-110">
          <mxGeometry x="30" width="140" height="30" as="geometry">
            <mxRectangle width="140" height="30" as="alternateBounds" />
          </mxGeometry>
        </mxCell>
        <mxCell id="hRoWKbpFYFCaURxFquuC-113" value="INT" style="shape=partialRectangle;connectable=0;fillColor=none;top=0;left=0;bottom=0;right=0;align=left;spacingLeft=6;overflow=hidden;whiteSpace=wrap;html=1;" vertex="1" parent="hRoWKbpFYFCaURxFquuC-110">
          <mxGeometry x="170" width="112" height="30" as="geometry">
            <mxRectangle width="112" height="30" as="alternateBounds" />
          </mxGeometry>
        </mxCell>
        <mxCell id="hRoWKbpFYFCaURxFquuC-114" style="shape=tableRow;horizontal=0;startSize=0;swimlaneHead=0;swimlaneBody=0;fillColor=none;collapsible=0;dropTarget=0;points=[[0,0.5],[1,0.5]];portConstraint=eastwest;top=0;left=0;right=0;bottom=0;" vertex="1" parent="hRoWKbpFYFCaURxFquuC-97">
          <mxGeometry y="240" width="282" height="30" as="geometry" />
        </mxCell>
        <mxCell id="hRoWKbpFYFCaURxFquuC-115" style="shape=partialRectangle;connectable=0;fillColor=none;top=0;left=0;bottom=0;right=0;editable=1;overflow=hidden;whiteSpace=wrap;html=1;" vertex="1" parent="hRoWKbpFYFCaURxFquuC-114">
          <mxGeometry width="30" height="30" as="geometry">
            <mxRectangle width="30" height="30" as="alternateBounds" />
          </mxGeometry>
        </mxCell>
        <mxCell id="hRoWKbpFYFCaURxFquuC-116" value="post_link" style="shape=partialRectangle;connectable=0;fillColor=none;top=0;left=0;bottom=0;right=0;align=left;spacingLeft=6;overflow=hidden;whiteSpace=wrap;html=1;" vertex="1" parent="hRoWKbpFYFCaURxFquuC-114">
          <mxGeometry x="30" width="140" height="30" as="geometry">
            <mxRectangle width="140" height="30" as="alternateBounds" />
          </mxGeometry>
        </mxCell>
        <mxCell id="hRoWKbpFYFCaURxFquuC-117" value="TEXT" style="shape=partialRectangle;connectable=0;fillColor=none;top=0;left=0;bottom=0;right=0;align=left;spacingLeft=6;overflow=hidden;whiteSpace=wrap;html=1;" vertex="1" parent="hRoWKbpFYFCaURxFquuC-114">
          <mxGeometry x="170" width="112" height="30" as="geometry">
            <mxRectangle width="112" height="30" as="alternateBounds" />
          </mxGeometry>
        </mxCell>
        <mxCell id="hRoWKbpFYFCaURxFquuC-139" value="" style="edgeStyle=entityRelationEdgeStyle;fontSize=12;html=1;endArrow=ERoneToMany;startArrow=ERmandOne;rounded=0;exitX=1;exitY=0.5;exitDx=0;exitDy=0;entryX=0;entryY=0.5;entryDx=0;entryDy=0;endSize=10;startSize=10;startFill=0;endFill=0;" edge="1" parent="1" source="hRoWKbpFYFCaURxFquuC-39" target="hRoWKbpFYFCaURxFquuC-197">
          <mxGeometry width="100" height="100" relative="1" as="geometry">
            <mxPoint x="430" y="350" as="sourcePoint" />
            <mxPoint x="530" y="250" as="targetPoint" />
            <Array as="points">
              <mxPoint x="580" y="550" />
              <mxPoint x="860" y="350" />
              <mxPoint x="850" y="350" />
            </Array>
          </mxGeometry>
        </mxCell>
        <mxCell id="hRoWKbpFYFCaURxFquuC-145" value="" style="edgeStyle=entityRelationEdgeStyle;fontSize=12;html=1;endArrow=ERzeroToMany;endFill=1;startArrow=ERmandOne;rounded=0;exitX=1;exitY=0.5;exitDx=0;exitDy=0;entryX=0;entryY=0.5;entryDx=0;entryDy=0;endSize=10;startSize=10;startFill=0;" edge="1" parent="1" source="hRoWKbpFYFCaURxFquuC-2" target="hRoWKbpFYFCaURxFquuC-126">
          <mxGeometry width="100" height="100" relative="1" as="geometry">
            <mxPoint x="200" y="830" as="sourcePoint" />
            <mxPoint x="300" y="730" as="targetPoint" />
          </mxGeometry>
        </mxCell>
        <mxCell id="hRoWKbpFYFCaURxFquuC-146" value="friends" style="shape=table;startSize=30;container=1;collapsible=1;childLayout=tableLayout;fixedRows=1;rowLines=0;fontStyle=1;align=center;resizeLast=1;html=1;" vertex="1" parent="1">
          <mxGeometry x="880" y="410" width="282" height="180" as="geometry">
            <mxRectangle x="158" y="120" width="70" height="30" as="alternateBounds" />
          </mxGeometry>
        </mxCell>
        <mxCell id="hRoWKbpFYFCaURxFquuC-147" value="" style="shape=tableRow;horizontal=0;startSize=0;swimlaneHead=0;swimlaneBody=0;fillColor=none;collapsible=0;dropTarget=0;points=[[0,0.5],[1,0.5]];portConstraint=eastwest;top=0;left=0;right=0;bottom=1;" vertex="1" parent="hRoWKbpFYFCaURxFquuC-146">
          <mxGeometry y="30" width="282" height="30" as="geometry" />
        </mxCell>
        <mxCell id="hRoWKbpFYFCaURxFquuC-148" value="PK" style="shape=partialRectangle;connectable=0;fillColor=none;top=0;left=0;bottom=0;right=0;fontStyle=1;overflow=hidden;whiteSpace=wrap;html=1;" vertex="1" parent="hRoWKbpFYFCaURxFquuC-147">
          <mxGeometry width="30" height="30" as="geometry">
            <mxRectangle width="30" height="30" as="alternateBounds" />
          </mxGeometry>
        </mxCell>
        <mxCell id="hRoWKbpFYFCaURxFquuC-149" value="friend_id&amp;nbsp;" style="shape=partialRectangle;connectable=0;fillColor=none;top=0;left=0;bottom=0;right=0;align=left;spacingLeft=6;fontStyle=5;overflow=hidden;whiteSpace=wrap;html=1;" vertex="1" parent="hRoWKbpFYFCaURxFquuC-147">
          <mxGeometry x="30" width="140" height="30" as="geometry">
            <mxRectangle width="140" height="30" as="alternateBounds" />
          </mxGeometry>
        </mxCell>
        <mxCell id="hRoWKbpFYFCaURxFquuC-150" value="INT" style="shape=partialRectangle;connectable=0;fillColor=none;top=0;left=0;bottom=0;right=0;align=left;spacingLeft=6;fontStyle=5;overflow=hidden;whiteSpace=wrap;html=1;" vertex="1" parent="hRoWKbpFYFCaURxFquuC-147">
          <mxGeometry x="170" width="112" height="30" as="geometry">
            <mxRectangle width="112" height="30" as="alternateBounds" />
          </mxGeometry>
        </mxCell>
        <mxCell id="hRoWKbpFYFCaURxFquuC-189" style="shape=tableRow;horizontal=0;startSize=0;swimlaneHead=0;swimlaneBody=0;fillColor=none;collapsible=0;dropTarget=0;points=[[0,0.5],[1,0.5]];portConstraint=eastwest;top=0;left=0;right=0;bottom=1;" vertex="1" parent="hRoWKbpFYFCaURxFquuC-146">
          <mxGeometry y="60" width="282" height="30" as="geometry" />
        </mxCell>
        <mxCell id="hRoWKbpFYFCaURxFquuC-190" value="FK" style="shape=partialRectangle;connectable=0;fillColor=none;top=0;left=0;bottom=0;right=0;fontStyle=1;overflow=hidden;whiteSpace=wrap;html=1;" vertex="1" parent="hRoWKbpFYFCaURxFquuC-189">
          <mxGeometry width="30" height="30" as="geometry">
            <mxRectangle width="30" height="30" as="alternateBounds" />
          </mxGeometry>
        </mxCell>
        <mxCell id="hRoWKbpFYFCaURxFquuC-191" value="user_id" style="shape=partialRectangle;connectable=0;fillColor=none;top=0;left=0;bottom=0;right=0;align=left;spacingLeft=6;fontStyle=5;overflow=hidden;whiteSpace=wrap;html=1;" vertex="1" parent="hRoWKbpFYFCaURxFquuC-189">
          <mxGeometry x="30" width="140" height="30" as="geometry">
            <mxRectangle width="140" height="30" as="alternateBounds" />
          </mxGeometry>
        </mxCell>
        <mxCell id="hRoWKbpFYFCaURxFquuC-192" value="INT" style="shape=partialRectangle;connectable=0;fillColor=none;top=0;left=0;bottom=0;right=0;align=left;spacingLeft=6;fontStyle=5;overflow=hidden;whiteSpace=wrap;html=1;" vertex="1" parent="hRoWKbpFYFCaURxFquuC-189">
          <mxGeometry x="170" width="112" height="30" as="geometry">
            <mxRectangle width="112" height="30" as="alternateBounds" />
          </mxGeometry>
        </mxCell>
        <mxCell id="hRoWKbpFYFCaURxFquuC-163" style="shape=tableRow;horizontal=0;startSize=0;swimlaneHead=0;swimlaneBody=0;fillColor=none;collapsible=0;dropTarget=0;points=[[0,0.5],[1,0.5]];portConstraint=eastwest;top=0;left=0;right=0;bottom=0;" vertex="1" parent="hRoWKbpFYFCaURxFquuC-146">
          <mxGeometry y="90" width="282" height="30" as="geometry" />
        </mxCell>
        <mxCell id="hRoWKbpFYFCaURxFquuC-164" style="shape=partialRectangle;connectable=0;fillColor=none;top=0;left=0;bottom=0;right=0;editable=1;overflow=hidden;whiteSpace=wrap;html=1;" vertex="1" parent="hRoWKbpFYFCaURxFquuC-163">
          <mxGeometry width="30" height="30" as="geometry">
            <mxRectangle width="30" height="30" as="alternateBounds" />
          </mxGeometry>
        </mxCell>
        <mxCell id="hRoWKbpFYFCaURxFquuC-165" value="is_available" style="shape=partialRectangle;connectable=0;fillColor=none;top=0;left=0;bottom=0;right=0;align=left;spacingLeft=6;overflow=hidden;whiteSpace=wrap;html=1;" vertex="1" parent="hRoWKbpFYFCaURxFquuC-163">
          <mxGeometry x="30" width="140" height="30" as="geometry">
            <mxRectangle width="140" height="30" as="alternateBounds" />
          </mxGeometry>
        </mxCell>
        <mxCell id="hRoWKbpFYFCaURxFquuC-166" value="BOOLEAN" style="shape=partialRectangle;connectable=0;fillColor=none;top=0;left=0;bottom=0;right=0;align=left;spacingLeft=6;overflow=hidden;whiteSpace=wrap;html=1;" vertex="1" parent="hRoWKbpFYFCaURxFquuC-163">
          <mxGeometry x="170" width="112" height="30" as="geometry">
            <mxRectangle width="112" height="30" as="alternateBounds" />
          </mxGeometry>
        </mxCell>
        <mxCell id="hRoWKbpFYFCaURxFquuC-167" style="shape=tableRow;horizontal=0;startSize=0;swimlaneHead=0;swimlaneBody=0;fillColor=none;collapsible=0;dropTarget=0;points=[[0,0.5],[1,0.5]];portConstraint=eastwest;top=0;left=0;right=0;bottom=0;" vertex="1" parent="hRoWKbpFYFCaURxFquuC-146">
          <mxGeometry y="120" width="282" height="30" as="geometry" />
        </mxCell>
        <mxCell id="hRoWKbpFYFCaURxFquuC-168" style="shape=partialRectangle;connectable=0;fillColor=none;top=0;left=0;bottom=0;right=0;editable=1;overflow=hidden;whiteSpace=wrap;html=1;" vertex="1" parent="hRoWKbpFYFCaURxFquuC-167">
          <mxGeometry width="30" height="30" as="geometry">
            <mxRectangle width="30" height="30" as="alternateBounds" />
          </mxGeometry>
        </mxCell>
        <mxCell id="hRoWKbpFYFCaURxFquuC-169" value="friend_name" style="shape=partialRectangle;connectable=0;fillColor=none;top=0;left=0;bottom=0;right=0;align=left;spacingLeft=6;overflow=hidden;whiteSpace=wrap;html=1;" vertex="1" parent="hRoWKbpFYFCaURxFquuC-167">
          <mxGeometry x="30" width="140" height="30" as="geometry">
            <mxRectangle width="140" height="30" as="alternateBounds" />
          </mxGeometry>
        </mxCell>
        <mxCell id="hRoWKbpFYFCaURxFquuC-170" value="VARCHAR" style="shape=partialRectangle;connectable=0;fillColor=none;top=0;left=0;bottom=0;right=0;align=left;spacingLeft=6;overflow=hidden;whiteSpace=wrap;html=1;" vertex="1" parent="hRoWKbpFYFCaURxFquuC-167">
          <mxGeometry x="170" width="112" height="30" as="geometry">
            <mxRectangle width="112" height="30" as="alternateBounds" />
          </mxGeometry>
        </mxCell>
        <mxCell id="hRoWKbpFYFCaURxFquuC-171" style="shape=tableRow;horizontal=0;startSize=0;swimlaneHead=0;swimlaneBody=0;fillColor=none;collapsible=0;dropTarget=0;points=[[0,0.5],[1,0.5]];portConstraint=eastwest;top=0;left=0;right=0;bottom=0;" vertex="1" parent="hRoWKbpFYFCaURxFquuC-146">
          <mxGeometry y="150" width="282" height="30" as="geometry" />
        </mxCell>
        <mxCell id="hRoWKbpFYFCaURxFquuC-172" style="shape=partialRectangle;connectable=0;fillColor=none;top=0;left=0;bottom=0;right=0;editable=1;overflow=hidden;whiteSpace=wrap;html=1;" vertex="1" parent="hRoWKbpFYFCaURxFquuC-171">
          <mxGeometry width="30" height="30" as="geometry">
            <mxRectangle width="30" height="30" as="alternateBounds" />
          </mxGeometry>
        </mxCell>
        <mxCell id="hRoWKbpFYFCaURxFquuC-173" value="friend_gender" style="shape=partialRectangle;connectable=0;fillColor=none;top=0;left=0;bottom=0;right=0;align=left;spacingLeft=6;overflow=hidden;whiteSpace=wrap;html=1;" vertex="1" parent="hRoWKbpFYFCaURxFquuC-171">
          <mxGeometry x="30" width="140" height="30" as="geometry">
            <mxRectangle width="140" height="30" as="alternateBounds" />
          </mxGeometry>
        </mxCell>
        <mxCell id="hRoWKbpFYFCaURxFquuC-174" value="CHAR" style="shape=partialRectangle;connectable=0;fillColor=none;top=0;left=0;bottom=0;right=0;align=left;spacingLeft=6;overflow=hidden;whiteSpace=wrap;html=1;" vertex="1" parent="hRoWKbpFYFCaURxFquuC-171">
          <mxGeometry x="170" width="112" height="30" as="geometry">
            <mxRectangle width="112" height="30" as="alternateBounds" />
          </mxGeometry>
        </mxCell>
        <mxCell id="hRoWKbpFYFCaURxFquuC-187" value="" style="edgeStyle=entityRelationEdgeStyle;fontSize=12;html=1;endArrow=ERoneToMany;endFill=0;rounded=0;exitX=1;exitY=0.5;exitDx=0;exitDy=0;entryX=0;entryY=0.5;entryDx=0;entryDy=0;endSize=10;startSize=10;startArrow=ERzeroToMany;startFill=0;" edge="1" parent="1" source="hRoWKbpFYFCaURxFquuC-183" target="hRoWKbpFYFCaURxFquuC-147">
          <mxGeometry width="100" height="100" relative="1" as="geometry">
            <mxPoint x="630" y="820" as="sourcePoint" />
            <mxPoint x="730" y="720" as="targetPoint" />
          </mxGeometry>
        </mxCell>
        <mxCell id="hRoWKbpFYFCaURxFquuC-202" value="" style="edgeStyle=entityRelationEdgeStyle;fontSize=12;html=1;endArrow=ERmandOne;startArrow=ERzeroToMany;rounded=0;exitX=1;exitY=0.5;exitDx=0;exitDy=0;entryX=0;entryY=0.5;entryDx=0;entryDy=0;endSize=10;startSize=10;startFill=0;endFill=0;" edge="1" parent="1" source="hRoWKbpFYFCaURxFquuC-130" target="hRoWKbpFYFCaURxFquuC-77">
          <mxGeometry width="100" height="100" relative="1" as="geometry">
            <mxPoint x="680" y="460" as="sourcePoint" />
            <mxPoint x="780" y="360" as="targetPoint" />
          </mxGeometry>
        </mxCell>
      </root>
    </mxGraphModel>
  </diagram>
</mxfile>
